<?xml version="1.0" encoding="utf-8"?>
<!-- Generator: Adobe Illustrator 16.0.3, SVG Export Plug-In . SVG Version: 6.00 Build 0)  -->
<!DOCTYPE svg PUBLIC "-//W3C//DTD SVG 1.1//EN" "http://www.w3.org/Graphics/SVG/1.1/DTD/svg11.dtd">
<svg version="1.1" id="圖層_1" xmlns="http://www.w3.org/2000/svg" xmlns:xlink="http://www.w3.org/1999/xlink" x="0px" y="0px"
	 width="104.311px" height="10px" viewBox="0 0 104.311 10" enable-background="new 0 0 104.311 10" xml:space="preserve">
<g>
	<path fill="#FFFFFF" d="M6.516,8.447C5.739,8.885,4.845,9.104,3.83,9.104c-1.162,0-2.09-0.354-2.787-1.06
		C0.348,7.34,0,6.388,0,5.194c0-1.208,0.386-2.199,1.156-2.97c0.772-0.771,1.765-1.157,2.979-1.157c0.837,0,1.554,0.129,2.149,0.387
		v1.235C5.672,2.31,4.931,2.121,4.061,2.121c-0.819,0-1.491,0.276-2.013,0.828C1.525,3.501,1.265,4.226,1.265,5.123
		c0,0.924,0.24,1.645,0.72,2.16c0.48,0.518,1.131,0.776,1.95,0.776c0.543,0,1-0.101,1.371-0.301V5.811H3.654V4.787h2.861V8.447z"/>
	<path fill="#FFFFFF" d="M7.721,6.248c0-0.914,0.26-1.635,0.78-2.164s1.229-0.793,2.127-0.793c0.847,0,1.516,0.256,2.008,0.768
		c0.492,0.512,0.737,1.212,0.737,2.099c0,0.894-0.259,1.607-0.777,2.144s-1.212,0.804-2.079,0.804c-0.85,0-1.528-0.26-2.035-0.778
		C7.975,7.807,7.721,7.114,7.721,6.248z M8.921,6.223c0,0.609,0.148,1.084,0.444,1.425c0.296,0.342,0.698,0.513,1.207,0.513
		c1.067,0,1.602-0.658,1.602-1.973c0-0.636-0.138-1.12-0.411-1.453c-0.275-0.333-0.672-0.5-1.19-0.5S9.648,4.412,9.357,4.767
		C9.066,5.122,8.921,5.607,8.921,6.223z"/>
	<path fill="#FFFFFF" d="M20.217,8.667c-0.577,0.292-1.302,0.438-2.175,0.438c-1.125,0-2.025-0.354-2.703-1.062
		S14.322,6.4,14.322,5.238c0-1.211,0.376-2.209,1.127-2.994c0.752-0.785,1.72-1.177,2.904-1.177c0.746,0,1.367,0.104,1.863,0.312
		v1.219c-0.55-0.307-1.157-0.461-1.823-0.461c-0.847,0-1.526,0.278-2.038,0.835c-0.513,0.557-0.768,1.286-0.768,2.187
		c0,0.86,0.239,1.556,0.719,2.088c0.481,0.532,1.124,0.798,1.932,0.798c0.749,0,1.409-0.172,1.979-0.516V8.667z"/>
	<path fill="#FFFFFF" d="M21.566,8.974V0.756h1.18v8.218H21.566z"/>
	<path fill="#FFFFFF" d="M24.052,6.248c0-0.914,0.26-1.635,0.78-2.164s1.229-0.793,2.127-0.793c0.846,0,1.515,0.256,2.008,0.768
		c0.492,0.512,0.737,1.212,0.737,2.099c0,0.894-0.26,1.607-0.777,2.144c-0.52,0.536-1.212,0.804-2.079,0.804
		c-0.85,0-1.529-0.26-2.035-0.778C24.305,7.807,24.052,7.114,24.052,6.248z M25.251,6.223c0,0.609,0.148,1.084,0.444,1.425
		c0.296,0.342,0.698,0.513,1.208,0.513c1.067,0,1.602-0.658,1.602-1.973c0-0.636-0.138-1.12-0.412-1.453s-0.671-0.5-1.189-0.5
		s-0.924,0.177-1.216,0.532C25.396,5.122,25.251,5.607,25.251,6.223z"/>
	<path fill="#FFFFFF" d="M35.784,8.974h-1.175V8.105h-0.025c-0.385,0.665-0.954,0.999-1.707,0.999c-1.309,0-1.963-0.785-1.963-2.354
		V3.421h1.176v3.182c0,1.038,0.397,1.557,1.194,1.557c0.388,0,0.706-0.142,0.954-0.427c0.247-0.284,0.371-0.658,0.371-1.119V3.421
		h1.175V8.974z"/>
	<path fill="#FFFFFF" d="M42.436,8.974h-1.175V8.095h-0.025c-0.401,0.673-1.014,1.01-1.837,1.01c-0.703,0-1.263-0.25-1.68-0.75
		c-0.416-0.5-0.625-1.177-0.625-2.026c0-0.921,0.234-1.657,0.703-2.209s1.079-0.828,1.833-0.828c0.752,0,1.288,0.284,1.605,0.854
		h0.025V0.756h1.175V8.974z M41.271,5.721c0-0.422-0.136-0.775-0.409-1.06c-0.272-0.284-0.609-0.426-1.011-0.426
		c-0.476,0-0.854,0.182-1.136,0.547c-0.281,0.365-0.421,0.863-0.421,1.496c0,0.583,0.133,1.043,0.396,1.378
		c0.265,0.336,0.625,0.505,1.079,0.505c0.442,0,0.803-0.166,1.082-0.5c0.28-0.333,0.419-0.753,0.419-1.262V5.721z"/>
	<path fill="#FFFFFF" d="M52.667,2.322c-0.12,0.592-0.32,1.178-0.598,1.756l-0.392-0.13c0.201-0.408,0.348-0.823,0.442-1.245h-3.996
		v0.913l2.681-0.175l0.02,0.402l-2.7,0.186v0.502c0,0.1,0.035,0.182,0.107,0.245c0.071,0.064,0.148,0.096,0.229,0.096h3.589v0.381
		H48.41c-0.208,0-0.376-0.053-0.505-0.161c-0.129-0.107-0.193-0.252-0.193-0.436V4.059L45.89,4.195l-0.04-0.422l1.862-0.125V2.704
		h-2.42v2.29c0,1.994-0.305,3.52-0.913,4.578l-0.372-0.236c0.268-0.502,0.481-1.071,0.641-1.71c0.158-0.637,0.237-1.519,0.237-2.643
		v-2.66h3.123V0.555h0.411v0.627h4.012v0.376h-4.012v0.764H52.667z M52.873,9.25h-7.396V8.858h2.666V7.814h-1.771V6.228h0.411v1.204
		h1.36V5.786h0.412v3.073h1.17V5.786h0.411v1.646h1.365V6.218h0.412v1.597h-1.777v1.044h2.736V9.25z"/>
	<path fill="#FFFFFF" d="M56.738,2.794h-0.934v1.883c0.228-0.154,0.483-0.347,0.769-0.578l0.115,0.342
		c-0.314,0.267-0.609,0.49-0.884,0.667v3.669c0,0.148-0.052,0.301-0.155,0.457c-0.104,0.157-0.375,0.236-0.813,0.236l-0.267-0.015
		l-0.125-0.402c0.141,0.021,0.271,0.03,0.392,0.03c0.228,0,0.377-0.024,0.449-0.072c0.072-0.049,0.108-0.134,0.108-0.254V5.354
		c-0.335,0.194-0.675,0.376-1.02,0.547L54.238,5.56c0.401-0.181,0.786-0.386,1.155-0.618V2.794h-1.114V2.412h1.114V0.555h0.411
		v1.857h0.934V2.794z M59.596,6.434H58.33c-0.037,0.23-0.07,0.398-0.101,0.502c0.305,0.277,0.636,0.62,0.994,1.03l-0.316,0.32
		c-0.204-0.288-0.469-0.602-0.793-0.939c-0.291,0.796-0.828,1.521-1.611,2.174l-0.291-0.281c0.967-0.767,1.532-1.701,1.697-2.806
		h-1.336V6.052h1.391c0.026-0.274,0.047-0.713,0.06-1.315h-0.627c-0.185,0.301-0.391,0.589-0.617,0.864l-0.326-0.227
		c0.481-0.555,0.829-1.138,1.043-1.747l0.352,0.125c-0.046,0.167-0.128,0.368-0.246,0.602h1.863v0.381h-1.039
		c0,0.499-0.017,0.938-0.051,1.315h1.221V6.434z M59.66,3.321h-1.751c-0.215,0-0.382-0.067-0.5-0.201
		C57.29,2.986,57.23,2.823,57.23,2.628V0.555h0.412v0.758h1.892v0.372h-1.892v0.944c0,0.215,0.117,0.321,0.351,0.321h1.667V3.321z
		 M63.255,8.913l-0.07,0.392l-0.477,0.021c-1.219,0-2.119-0.426-2.701-1.275c-0.234,0.582-0.571,1.082-1.01,1.5l-0.306-0.26
		c0.897-0.854,1.346-2.064,1.346-3.634V5.64h0.412c-0.048,0.824-0.14,1.473-0.276,1.948c0.291,0.479,0.62,0.813,0.988,1.005V4.14
		h-1.351V3.782h1.983c-0.492-0.632-1.057-1.171-1.692-1.616l0.267-0.286c0.291,0.197,0.6,0.447,0.924,0.748
		c0.582-0.579,0.997-1.054,1.245-1.426h-2.53V0.821h2.982v0.412c-0.262,0.411-0.738,0.963-1.432,1.656
		c0.205,0.201,0.394,0.417,0.567,0.648l-0.256,0.245h1.245c-0.097,0.633-0.256,1.212-0.477,1.737l-0.377-0.186
		c0.154-0.294,0.276-0.692,0.366-1.194h-1.059v1.998h1.285v0.381h-1.285v2.239c0.291,0.117,0.692,0.176,1.205,0.176
		C62.94,8.934,63.101,8.927,63.255,8.913z"/>
	<path fill="#FFFFFF" d="M73.23,4.215h-0.412V2.382h-3.6v2.108h-0.412V2.382h-3.599v1.833h-0.407V2.025h4.006V1.147h-3.699V0.791
		h7.812v0.356h-3.7v0.878h4.012V4.215z M73.546,8.13c-0.033,0.426-0.124,0.734-0.271,0.926c-0.146,0.192-0.393,0.302-0.737,0.33
		c-0.345,0.027-0.858,0.04-1.541,0.04c-1.031,0-1.653-0.041-1.868-0.123c-0.214-0.081-0.321-0.302-0.321-0.66V7.874h-3.288V4.942
		h6.993v2.932h-3.293v0.862c0,0.115,0.03,0.19,0.091,0.229c0.06,0.036,0.251,0.062,0.574,0.079c0.323,0.017,0.728,0.025,1.213,0.025
		c0.902,0,1.463-0.023,1.679-0.073c0.216-0.048,0.348-0.396,0.395-1.042L73.546,8.13z M68.22,4.129
		c-0.891,0.201-1.686,0.342-2.385,0.422l-0.11-0.347c0.793-0.08,1.578-0.213,2.354-0.401L68.22,4.129z M68.21,3.155l-0.141,0.336
		c-0.684-0.164-1.441-0.279-2.274-0.346l0.176-0.332C66.757,2.881,67.504,2.995,68.21,3.155z M68.807,6.218V5.304h-2.876v0.914
		H68.807z M68.807,7.513V6.579h-2.876v0.934H68.807z M72.101,6.218V5.304h-2.882v0.914H72.101z M72.101,7.513V6.579h-2.882v0.934
		H72.101z M72.347,4.235l-0.195,0.336c-0.834-0.207-1.658-0.348-2.471-0.422l0.186-0.316C70.776,3.917,71.604,4.05,72.347,4.235z
		 M72.271,3.175c-0.941,0.185-1.732,0.298-2.375,0.341l-0.121-0.341c0.656-0.05,1.448-0.164,2.376-0.341L72.271,3.175z"/>
	<path fill="#FFFFFF" d="M77.639,8.667c0,0.288-0.061,0.492-0.182,0.611c-0.12,0.118-0.336,0.178-0.647,0.178h-0.517l-0.101-0.412
		c0.211,0.017,0.411,0.025,0.602,0.025c0.292,0,0.438-0.097,0.438-0.292V5.334c-0.357,0.492-0.809,0.969-1.351,1.431l-0.256-0.261
		c-0.073,1.219-0.244,2.209-0.512,2.971l-0.372-0.325c0.342-1.067,0.512-2.428,0.512-4.082V0.841h2.386V8.667z M77.231,4.727V3.863
		L77,4.109c-0.391-0.411-0.837-0.774-1.335-1.09v1.934c0,0.499-0.014,0.986-0.04,1.461C76.174,5.972,76.709,5.409,77.231,4.727z
		 M77.231,3.742v-2.52h-1.566v1.727l0.227-0.255C76.377,2.995,76.823,3.344,77.231,3.742z M79.686,3.718L79.39,3.934
		c-0.254-0.405-0.673-0.942-1.254-1.611c0.478-0.667,0.847-1.274,1.108-1.823l0.392,0.146c-0.294,0.585-0.645,1.138-1.049,1.657
		C78.995,2.743,79.361,3.215,79.686,3.718z M83.472,9.456H83.06V9.004h-4.111v0.452h-0.412v-4.86h1.266
		c0.197-0.281,0.364-0.604,0.502-0.968l0.422,0.115l-0.462,0.854h3.208V9.456z M83.06,8.612v-3.63h-4.111v3.63H83.06z M82.608,7.844
		L82.327,8.13c-0.325-0.325-0.715-0.681-1.17-1.069c-0.578,0.488-1.121,0.872-1.627,1.149l-0.235-0.296
		c0.619-0.371,1.145-0.735,1.576-1.089c-0.522-0.411-0.989-0.745-1.4-0.999l0.256-0.266c0.412,0.261,0.889,0.604,1.431,1.029
		c0.448-0.401,0.785-0.771,1.009-1.109l0.297,0.206c-0.248,0.354-0.588,0.731-1.02,1.129C81.962,7.247,82.35,7.589,82.608,7.844z
		 M81.689,3.707l-0.356,0.207c-0.241-0.425-0.626-0.946-1.154-1.562c0.441-0.646,0.801-1.26,1.079-1.842l0.361,0.155
		c-0.328,0.656-0.661,1.208-0.999,1.657C81.099,2.867,81.455,3.329,81.689,3.707z M83.768,3.762l-0.342,0.186
		c-0.327-0.482-0.737-1.004-1.229-1.566c0.522-0.756,0.898-1.372,1.13-1.848l0.331,0.151c-0.184,0.412-0.523,0.964-1.02,1.657
		C83.1,2.871,83.477,3.344,83.768,3.762z"/>
	<path fill="#FFFFFF" d="M90.183,1.117c-0.417,0.729-0.925,1.429-1.521,2.098h1.295v0.381h-1.646
		c-0.361,0.372-0.765,0.738-1.209,1.1h2.138v0.381c-0.408,0.419-0.849,0.827-1.319,1.225v0.582c0.595-0.113,1.219-0.254,1.872-0.421
		l-0.01,0.381c-0.71,0.171-1.33,0.309-1.862,0.413v1.54c0,0.211-0.059,0.377-0.174,0.5C87.63,9.42,87.347,9.48,86.896,9.48
		c-0.164,0-0.337-0.009-0.518-0.024l-0.12-0.433c0.163,0.014,0.348,0.021,0.552,0.021c0.312,0,0.506-0.028,0.585-0.082
		c0.079-0.057,0.118-0.143,0.118-0.265V7.338c-0.833,0.157-1.595,0.273-2.284,0.351l-0.095-0.342
		c0.749-0.097,1.542-0.225,2.379-0.386V6.138c0.277-0.231,0.654-0.584,1.129-1.06h-2.028c-0.29,0.225-0.704,0.503-1.239,0.833
		l-0.271-0.31c1.021-0.623,1.903-1.291,2.646-2.004h-2.501V3.215h1.933V1.92h-1.646V1.539h1.646V0.49h0.412v1.049h1.306V1.92h-1.306
		v1.295h0.532c0.736-0.756,1.309-1.521,1.717-2.294L90.183,1.117z M94.079,9.11l-0.236,0.355c-0.86-0.431-1.553-1.011-2.078-1.737
		c-0.532,0.633-1.317,1.219-2.354,1.757l-0.337-0.326c1.145-0.559,1.966-1.151,2.465-1.777c-0.385-0.656-0.689-1.557-0.914-2.705
		l0.411-0.106c0.147,0.967,0.409,1.781,0.784,2.44c0.686-1.041,1.035-2.515,1.049-4.423h-1.606c-0.328,0.887-0.764,1.72-1.306,2.5
		l-0.321-0.301c0.935-1.333,1.528-2.785,1.783-4.358l0.401,0.146c-0.11,0.596-0.252,1.14-0.422,1.632h2.681v0.381h-0.788
		c-0.014,2.028-0.429,3.623-1.245,4.785C92.574,8.125,93.253,8.705,94.079,9.11z"/>
	<path fill="#FFFFFF" d="M104.311,9.18h-8.916V8.788h4.247V7.268h-3.669V6.875h3.669V5.55c-1.309,0.107-2.446,0.169-3.413,0.186
		l-0.101-0.362c1.058-0.435,2.022-1.109,2.896-2.023H96.68V2.959h6.355v0.391h-3.443c-0.75,0.817-1.597,1.472-2.54,1.963
		c1.405-0.037,3.139-0.177,5.201-0.422c-0.412-0.311-0.81-0.585-1.19-0.823l0.267-0.296c0.953,0.579,1.773,1.209,2.46,1.893
		l-0.312,0.316c-0.238-0.261-0.495-0.504-0.773-0.728l-2.65,0.256v1.365h3.67v0.393h-3.67v1.521h4.257V9.18z M103.899,3.286h-0.411
		V1.87h-7.25v1.386h-0.412V1.499h3.941c-0.145-0.355-0.288-0.652-0.432-0.894l0.421-0.135c0.182,0.308,0.352,0.651,0.513,1.029h3.63
		V3.286z"/>
</g>
</svg>
