<?xml version="1.0" encoding="UTF-8" standalone="no"?>
<svg
   xmlns:dc="http://purl.org/dc/elements/1.1/"
   xmlns:cc="http://creativecommons.org/ns#"
   xmlns:rdf="http://www.w3.org/1999/02/22-rdf-syntax-ns#"
   xmlns:svg="http://www.w3.org/2000/svg"
   xmlns="http://www.w3.org/2000/svg"
   viewBox="0 0 480 97.333336"
   height="97.333336"
   width="480"
   xml:space="preserve"
   id="svg2"
   version="1.1"><metadata
     id="metadata8"><rdf:RDF><cc:Work
         rdf:about=""><dc:format>image/svg+xml</dc:format><dc:type
           rdf:resource="http://purl.org/dc/dcmitype/StillImage" /></cc:Work></rdf:RDF></metadata><defs
     id="defs6"><clipPath
       id="clipPath18"
       clipPathUnits="userSpaceOnUse"><path
         id="path16"
         d="M 0,73 H 360 V 0 H 0 Z" /></clipPath><clipPath
       id="clipPath34"
       clipPathUnits="userSpaceOnUse"><path
         id="path32"
         d="m 83.615,59.94 c -4.198,-0.743 -7.484,-2.915 -9.739,-6.566 v 0 c -0.845,-1.368 -1.495,-2.825 -1.928,-4.486 v 0 c 0.433,0.257 0.493,0.622 0.647,0.913 v 0 c 1.675,3.177 4.159,5.426 7.566,6.611 v 0 c 3.187,1.108 6.462,1.309 9.762,0.737 v 0 c 4.929,-0.852 8.977,-3.153 11.724,-7.468 v 0 c 0.652,-1.025 1.169,-2.118 1.631,-3.254 v 0 c 4.025,3.298 7.33,2.85 10.011,1.169 v 0 c 2.911,-1.823 4.283,-5.073 3.662,-8.651 v 0 c 4.16,-0.325 8.006,-1.552 10.079,-5.446 v 0 c 0.247,-0.464 0.531,-0.926 0.658,-1.437 v 0 c 0.039,-0.162 0.06,-0.287 0.154,-0.459 v 0 c 0.216,-0.392 0.22,-0.853 0.321,-1.287 v 0 c 0.073,-0.315 0.003,-0.65 0.103,-0.963 v 0 c 0.016,-0.051 0.044,-0.099 0.057,-0.149 v 0 c 0.064,-0.248 0.031,-0.513 0.038,-0.768 v 0 c 0.009,-0.37 0.002,-0.74 0,-1.111 v 0 c -0.003,-0.265 0.006,-0.529 -0.011,-0.794 v 0 c -0.027,-0.423 -0.085,-0.842 -0.143,-1.263 v 0 c -0.046,-0.323 -0.097,-0.645 -0.161,-0.964 v 0 c -0.097,-0.477 -0.204,-0.954 -0.341,-1.421 v 0 c -0.095,-0.322 -0.206,-0.639 -0.333,-0.949 v 0 c -0.179,-0.435 -0.384,-0.86 -0.604,-1.274 v 0 c -0.144,-0.274 -0.301,-0.541 -0.471,-0.801 v 0 c -0.25,-0.381 -0.517,-0.756 -0.808,-1.108 v 0 c -0.307,-0.372 -0.633,-0.728 -0.986,-1.056 v 0 c -0.507,-0.469 -1.047,-0.907 -1.62,-1.293 v 0 c -0.538,-0.364 -1.109,-0.683 -1.698,-0.96 v 0 c -0.675,-0.317 -1.369,-0.612 -2.092,-0.798 v 0 c -0.943,-0.244 -1.892,-0.47 -2.883,-0.47 v 0 c -11.873,0 -23.745,-0.008 -35.618,-0.008 v 0 C 69.464,14.165 58.334,14.172 47.205,14.175 v 0 l -10.714,0.033 c -0.376,-0.042 -0.602,-0.095 -0.487,-0.531 v 0 c 0,-0.157 -10e-4,-0.316 -10e-4,-0.475 v 0 c -0.127,-0.565 0.198,-0.53 0.485,-0.495 v 0 c 0.071,0.008 0.139,0.017 0.199,0.017 v 0 c 7.535,-0.015 6.15,-0.022 13.686,-0.024 v 0 c 11.417,-0.002 22.833,0 34.249,0 v 0 h 14.347 19.436 c 0.534,0 0.988,0.159 1.521,0.333 v 0 c 0.502,0.165 0.934,0.361 1.421,0.509 v 0 c 0.482,0.148 0.788,0.5 1.27,0.627 v 0 c 0.489,0.129 0.843,0.514 1.273,0.779 v 0 c 0.475,0.294 0.831,0.677 1.268,0.988 v 0 c 0.559,0.4 0.925,0.941 1.426,1.411 v 0 c 0.379,0.354 0.621,0.74 0.951,1.102 v 0 c 0.277,0.304 0.383,0.678 0.63,0.977 v 0 c 0.225,0.274 0.356,0.551 0.514,0.855 v 0 c 0.23,0.44 0.408,0.869 0.612,1.316 v 0 c 0.218,0.477 0.374,0.941 0.503,1.43 v 0 c 0.099,0.37 0.171,0.747 0.293,1.11 v 0 c 0.176,0.525 0.127,1.074 0.301,1.599 v 0 c 0.018,0.052 0.018,0.085 0.018,0.14 v 0 c -0.01,0.562 0.136,1.066 0.144,1.607 v 0 c 0.003,0.144 0.006,0.288 0.021,0.431 v 0 c 0.014,0.128 0.056,0.27 0.068,0.399 v 0 c 0.033,0.31 -0.003,0.608 -0.061,0.927 v 0 c -0.065,0.361 -0.072,0.734 -0.052,1.1 v 0 c 0.022,0.392 -0.16,0.739 -0.159,1.116 v 0 c 0,0.426 -0.272,0.721 -0.278,1.109 v 0 c -0.007,0.406 -0.176,0.736 -0.329,1.108 v 0 c -0.213,0.52 -0.365,1.043 -0.639,1.523 v 0 c -2.047,3.6 -5.322,5.295 -9.264,5.913 v 0 c -0.488,0.076 -0.622,0.216 -0.577,0.684 v 0 c 0.076,0.79 0.092,1.583 -0.079,2.366 v 0 c -1.101,5.052 -7.569,9.738 -14.131,5.916 v 0 c -0.737,-0.428 -0.899,-0.264 -1.16,0.422 v 0 c -1.037,2.723 -2.781,4.926 -5.213,6.515 v 0 c -3.434,2.243 -7.123,3.298 -11.005,3.298 v 0 c -1.337,0 -2.697,-0.125 -4.077,-0.37" /></clipPath><linearGradient
       id="linearGradient46"
       spreadMethod="pad"
       gradientTransform="matrix(-2.1e-6,-47.619629,-47.619629,2.1e-6,83.312988,60.30957)"
       gradientUnits="userSpaceOnUse"
       y2="0"
       x2="1"
       y1="0"
       x1="0"><stop
         id="stop40"
         offset="0"
         style="stop-opacity:1;stop-color:#2ca7d8" /><stop
         id="stop42"
         offset="0.62029737"
         style="stop-opacity:1;stop-color:#3e2e6b" /><stop
         id="stop44"
         offset="1"
         style="stop-opacity:1;stop-color:#3e2e6b" /></linearGradient><clipPath
       id="clipPath56"
       clipPathUnits="userSpaceOnUse"><path
         id="path54"
         d="M 4.579,33.634 C 2.86,31.874 2,29.672 2,27.026 v 0 c 0,-2.639 0.845,-4.875 2.533,-6.712 v 0 c 1.69,-1.837 3.744,-2.757 6.164,-2.757 v 0 c 1.862,0 3.432,0.593 4.707,1.778 v 0 c 1.276,1.183 1.914,2.645 1.914,4.386 v 0 c 0,1.498 -0.545,2.922 -1.633,4.27 v 0 h -5.053 v -4.047 h 1.266 c 0.522,0 0.784,-0.174 0.784,-0.522 v 0 c 0,-0.462 -0.396,-0.692 -1.189,-0.692 v 0 c -1.245,0 -2.233,0.37 -2.964,1.109 v 0 C 7.798,24.58 7.432,25.58 7.432,26.842 v 0 c 0,1.237 0.394,2.243 1.182,3.017 v 0 c 0.788,0.776 1.804,1.162 3.049,1.162 v 0 c 0.688,0 1.45,-0.197 2.286,-0.587 v 0 5.301 c -1.072,0.359 -2.047,0.537 -2.925,0.537 v 0 c -2.577,0 -4.725,-0.88 -6.445,-2.638" /></clipPath><linearGradient
       id="linearGradient68"
       spreadMethod="pad"
       gradientTransform="matrix(-8e-7,-18.714844,-18.714844,8e-7,9.6586914,36.271973)"
       gradientUnits="userSpaceOnUse"
       y2="0"
       x2="1"
       y1="0"
       x1="0"><stop
         id="stop62"
         offset="0"
         style="stop-opacity:1;stop-color:#2ca7d8" /><stop
         id="stop64"
         offset="0.62029737"
         style="stop-opacity:1;stop-color:#3e2e6b" /><stop
         id="stop66"
         offset="1"
         style="stop-opacity:1;stop-color:#3e2e6b" /></linearGradient><clipPath
       id="clipPath78"
       clipPathUnits="userSpaceOnUse"><path
         id="path76"
         d="m 21.163,33.555 c -1.841,-1.811 -2.762,-4.021 -2.762,-6.634 v 0 c 0,-2.586 0.915,-4.792 2.743,-6.621 v 0 c 1.828,-1.828 4.034,-2.743 6.62,-2.743 v 0 c 2.603,0 4.814,0.912 6.634,2.731 v 0 c 1.819,1.819 2.73,4.03 2.73,6.633 v 0 c 0,2.559 -0.905,4.758 -2.71,6.596 v 0 c -1.807,1.836 -3.972,2.755 -6.497,2.755 v 0 c -2.664,0 -4.917,-0.906 -6.758,-2.717 m 3.826,-9.533 c -0.77,0.801 -1.155,1.768 -1.155,2.899 v 0 c 0,1.131 0.383,2.099 1.149,2.9 v 0 c 0.766,0.8 1.693,1.2 2.781,1.2 v 0 c 1.097,0 2.027,-0.396 2.787,-1.192 v 0 c 0.763,-0.797 1.143,-1.768 1.143,-2.908 v 0 c 0,-1.14 -0.38,-2.105 -1.143,-2.904 v 0 c -0.76,-0.795 -1.69,-1.196 -2.787,-1.196 v 0 c -1.079,0 -2.004,0.401 -2.775,1.201" /></clipPath><linearGradient
       id="linearGradient90"
       spreadMethod="pad"
       gradientTransform="matrix(-8e-7,-18.714844,-18.714844,8e-7,27.76416,36.271973)"
       gradientUnits="userSpaceOnUse"
       y2="0"
       x2="1"
       y1="0"
       x1="0"><stop
         id="stop84"
         offset="0"
         style="stop-opacity:1;stop-color:#2ca7d8" /><stop
         id="stop86"
         offset="0.62029737"
         style="stop-opacity:1;stop-color:#3e2e6b" /><stop
         id="stop88"
         offset="1"
         style="stop-opacity:1;stop-color:#3e2e6b" /></linearGradient><clipPath
       id="clipPath100"
       clipPathUnits="userSpaceOnUse"><path
         id="path98"
         d="m 45.293,33.555 c -1.824,-1.811 -2.736,-4.045 -2.736,-6.7 v 0 c 0,-2.637 0.895,-4.845 2.683,-6.624 v 0 c 1.789,-1.78 4.012,-2.674 6.667,-2.674 v 0 c 2.611,0 4.729,0.785 6.353,2.352 v 0 c 1.624,1.568 2.618,3.786 2.984,6.659 v 0 l -5.549,0.145 c -0.123,-1.255 -0.517,-2.217 -1.183,-2.886 v 0 c -0.666,-0.672 -1.56,-1.006 -2.684,-1.006 v 0 c -1.105,0 -2.019,0.383 -2.742,1.144 v 0 c -0.723,0.762 -1.084,1.725 -1.084,2.89 v 0 c 0,1.211 0.368,2.208 1.104,2.993 v 0 c 0.735,0.782 1.669,1.173 2.801,1.173 v 0 c 1.775,0 2.981,-0.975 3.618,-2.924 v 0 l 5.679,0.379 c -0.504,2.192 -1.367,3.903 -2.585,5.13 v 0 c -1.759,1.777 -3.952,2.666 -6.581,2.666 v 0 c -2.673,0 -4.921,-0.906 -6.745,-2.717" /></clipPath><linearGradient
       id="linearGradient112"
       spreadMethod="pad"
       gradientTransform="matrix(-8e-7,-18.714844,-18.714844,8e-7,51.900391,36.271973)"
       gradientUnits="userSpaceOnUse"
       y2="0"
       x2="1"
       y1="0"
       x1="0"><stop
         id="stop106"
         offset="0"
         style="stop-opacity:1;stop-color:#2ca7d8" /><stop
         id="stop108"
         offset="0.62029737"
         style="stop-opacity:1;stop-color:#3e2e6b" /><stop
         id="stop110"
         offset="1"
         style="stop-opacity:1;stop-color:#3e2e6b" /></linearGradient><clipPath
       id="clipPath122"
       clipPathUnits="userSpaceOnUse"><path
         id="path120"
         d="M 63.385,35.826 V 24.387 c 0,-2.001 0.54,-3.563 1.619,-4.69 v 0 c 1.08,-1.128 2.586,-1.694 4.519,-1.694 v 0 h 1.411 v 5.171 h -0.275 c -0.784,0 -1.309,0.139 -1.574,0.413 v 0 c -0.266,0.275 -0.398,0.823 -0.398,1.649 v 0 10.59 z" /></clipPath><linearGradient
       id="linearGradient134"
       spreadMethod="pad"
       gradientTransform="matrix(-8e-7,-17.823242,-17.823242,8e-7,67.159668,35.826172)"
       gradientUnits="userSpaceOnUse"
       y2="0"
       x2="1"
       y1="0"
       x1="0"><stop
         id="stop128"
         offset="0"
         style="stop-opacity:1;stop-color:#2ca7d8" /><stop
         id="stop130"
         offset="0.62029737"
         style="stop-opacity:1;stop-color:#3e2e6b" /><stop
         id="stop132"
         offset="1"
         style="stop-opacity:1;stop-color:#3e2e6b" /></linearGradient><clipPath
       id="clipPath144"
       clipPathUnits="userSpaceOnUse"><path
         id="path142"
         d="m 74.413,33.555 c -1.841,-1.811 -2.762,-4.021 -2.762,-6.634 v 0 c 0,-2.586 0.914,-4.792 2.743,-6.621 v 0 c 1.828,-1.828 4.034,-2.743 6.62,-2.743 v 0 c 2.602,0 4.815,0.912 6.633,2.731 v 0 c 1.82,1.819 2.73,4.03 2.73,6.633 v 0 c 0,2.559 -0.904,4.758 -2.71,6.596 v 0 c -1.806,1.836 -3.972,2.755 -6.496,2.755 v 0 c -2.665,0 -4.917,-0.906 -6.758,-2.717 m 3.827,-9.533 c -0.772,0.801 -1.157,1.768 -1.157,2.899 v 0 c 0,1.131 0.384,2.099 1.149,2.9 v 0 c 0.766,0.8 1.693,1.2 2.782,1.2 v 0 c 1.097,0 2.026,-0.396 2.789,-1.192 v 0 c 0.76,-0.797 1.142,-1.768 1.142,-2.908 v 0 c 0,-1.14 -0.382,-2.105 -1.142,-2.904 v 0 C 83.04,23.222 82.111,22.821 81.014,22.821 v 0 c -1.08,0 -2.005,0.401 -2.774,1.201" /></clipPath><linearGradient
       id="linearGradient156"
       spreadMethod="pad"
       gradientTransform="matrix(-8e-7,-18.714844,-18.714844,8e-7,81.01416,36.271973)"
       gradientUnits="userSpaceOnUse"
       y2="0"
       x2="1"
       y1="0"
       x1="0"><stop
         id="stop150"
         offset="0"
         style="stop-opacity:1;stop-color:#2ca7d8" /><stop
         id="stop152"
         offset="0.62029737"
         style="stop-opacity:1;stop-color:#3e2e6b" /><stop
         id="stop154"
         offset="1"
         style="stop-opacity:1;stop-color:#3e2e6b" /></linearGradient><clipPath
       id="clipPath166"
       clipPathUnits="userSpaceOnUse"><path
         id="path164"
         d="M 100.093,35.826 V 24.453 c 0,-1.088 -0.375,-1.632 -1.124,-1.632 v 0 c -0.774,0 -1.162,0.544 -1.162,1.632 v 0 11.373 H 92.506 V 24.44 c 0,-2.22 0.533,-3.922 1.599,-5.105 v 0 c 1.066,-1.185 2.605,-1.778 4.616,-1.778 v 0 c 2.02,0 3.637,0.611 4.852,1.83 v 0 c 1.214,1.218 1.821,2.847 1.821,4.883 v 0 11.556 z" /></clipPath><linearGradient
       id="linearGradient178"
       spreadMethod="pad"
       gradientTransform="matrix(-8e-7,-18.268555,-18.268555,8e-7,98.949707,35.826172)"
       gradientUnits="userSpaceOnUse"
       y2="0"
       x2="1"
       y1="0"
       x1="0"><stop
         id="stop172"
         offset="0"
         style="stop-opacity:1;stop-color:#2ca7d8" /><stop
         id="stop174"
         offset="0.62029737"
         style="stop-opacity:1;stop-color:#3e2e6b" /><stop
         id="stop176"
         offset="1"
         style="stop-opacity:1;stop-color:#3e2e6b" /></linearGradient><clipPath
       id="clipPath188"
       clipPathUnits="userSpaceOnUse"><path
         id="path186"
         d="M 108.619,35.826 V 18.003 h 5.302 v 12.705 h 1.789 c 3.039,0 4.558,-1.214 4.558,-3.643 v 0 c 0,-2.587 -1.545,-3.879 -4.636,-3.879 v 0 h -0.849 v -5.235 c 0.731,-0.036 1.259,-0.054 1.581,-0.054 v 0 c 2.741,0 4.983,0.855 6.725,2.56 v 0 c 1.741,1.706 2.611,3.91 2.611,6.608 v 0 c 0,2.82 -1.018,5.053 -3.055,6.698 v 0 c -1.716,1.377 -4.087,2.063 -7.117,2.063 v 0 z" /></clipPath><linearGradient
       id="linearGradient200"
       spreadMethod="pad"
       gradientTransform="matrix(-8e-7,-17.928711,-17.928711,8e-7,117.15967,35.826172)"
       gradientUnits="userSpaceOnUse"
       y2="0"
       x2="1"
       y1="0"
       x1="0"><stop
         id="stop194"
         offset="0"
         style="stop-opacity:1;stop-color:#2ca7d8" /><stop
         id="stop196"
         offset="0.62029737"
         style="stop-opacity:1;stop-color:#3e2e6b" /><stop
         id="stop198"
         offset="1"
         style="stop-opacity:1;stop-color:#3e2e6b" /></linearGradient><clipPath
       id="clipPath210"
       clipPathUnits="userSpaceOnUse"><path
         id="path208"
         d="M 0,73 H 360 V 0 H 0 Z" /></clipPath></defs><g
     transform="matrix(1.3333333,0,0,-1.3333333,0,97.333333)"
     id="g10"><g
       id="g12"><g
         clip-path="url(#clipPath18)"
         id="g14"><g
           transform="translate(44.0537,41.5112)"
           id="g20"><path
             id="path22"
             style="fill:#2ca7d8;fill-opacity:1;fill-rule:evenodd;stroke:none"
             d="m 0,0 c -1.501,0.001 -3.004,-0.031 -4.504,0.008 -2.473,0.064 -4.045,2.979 -2.761,5.095 0.165,0.272 0.389,0.652 0.643,0.705 1.212,0.253 1.263,1.17 1.449,2.127 0.28,1.439 1.163,2.418 2.678,2.594 1.693,0.199 3.307,0.022 4.25,-1.676 C 2.01,8.394 2.21,8.401 2.664,8.523 4.014,8.887 4.992,8.256 5.244,6.893 5.312,6.523 5.413,6.346 5.793,6.224 7.519,5.668 8.052,4.705 7.779,2.757 7.568,1.261 6.265,0.031 4.797,0.006 3.199,-0.021 1.599,0 0,0" /></g><g
           transform="translate(71.979,37.7085)"
           id="g24"><path
             id="path26"
             style="fill:#2ca7d8;fill-opacity:1;fill-rule:evenodd;stroke:none"
             d="m 0,0 c -0.717,0 -1.434,-0.004 -2.15,0.001 -0.914,0.006 -1.593,0.399 -1.836,1.304 -0.222,0.823 -0.091,1.586 0.812,1.946 0.395,0.157 0.276,0.475 0.341,0.729 0.201,0.78 0.572,1.364 1.429,1.547 0.84,0.18 1.541,-0.019 2.125,-0.641 C 0.809,4.792 0.887,4.579 0.948,4.587 2.033,4.721 2.456,3.816 3.168,3.313 4.02,2.711 4.135,2.033 3.931,1.219 3.728,0.408 3.091,0.012 2.248,0.002 1.499,-0.007 0.75,0 0,0" /></g></g></g><g
       id="g28"><g
         clip-path="url(#clipPath34)"
         id="g30"><g
           id="g36"><g
             id="g38"><path
               id="path48"
               style="fill:url(#linearGradient46);stroke:none"
               d="m 83.615,59.94 c -4.198,-0.743 -7.484,-2.915 -9.739,-6.566 v 0 c -0.845,-1.368 -1.495,-2.825 -1.928,-4.486 v 0 c 0.433,0.257 0.493,0.622 0.647,0.913 v 0 c 1.675,3.177 4.159,5.426 7.566,6.611 v 0 c 3.187,1.108 6.462,1.309 9.762,0.737 v 0 c 4.929,-0.852 8.977,-3.153 11.724,-7.468 v 0 c 0.652,-1.025 1.169,-2.118 1.631,-3.254 v 0 c 4.025,3.298 7.33,2.85 10.011,1.169 v 0 c 2.911,-1.823 4.283,-5.073 3.662,-8.651 v 0 c 4.16,-0.325 8.006,-1.552 10.079,-5.446 v 0 c 0.247,-0.464 0.531,-0.926 0.658,-1.437 v 0 c 0.039,-0.162 0.06,-0.287 0.154,-0.459 v 0 c 0.216,-0.392 0.22,-0.853 0.321,-1.287 v 0 c 0.073,-0.315 0.003,-0.65 0.103,-0.963 v 0 c 0.016,-0.051 0.044,-0.099 0.057,-0.149 v 0 c 0.064,-0.248 0.031,-0.513 0.038,-0.768 v 0 c 0.009,-0.37 0.002,-0.74 0,-1.111 v 0 c -0.003,-0.265 0.006,-0.529 -0.011,-0.794 v 0 c -0.027,-0.423 -0.085,-0.842 -0.143,-1.263 v 0 c -0.046,-0.323 -0.097,-0.645 -0.161,-0.964 v 0 c -0.097,-0.477 -0.204,-0.954 -0.341,-1.421 v 0 c -0.095,-0.322 -0.206,-0.639 -0.333,-0.949 v 0 c -0.179,-0.435 -0.384,-0.86 -0.604,-1.274 v 0 c -0.144,-0.274 -0.301,-0.541 -0.471,-0.801 v 0 c -0.25,-0.381 -0.517,-0.756 -0.808,-1.108 v 0 c -0.307,-0.372 -0.633,-0.728 -0.986,-1.056 v 0 c -0.507,-0.469 -1.047,-0.907 -1.62,-1.293 v 0 c -0.538,-0.364 -1.109,-0.683 -1.698,-0.96 v 0 c -0.675,-0.317 -1.369,-0.612 -2.092,-0.798 v 0 c -0.943,-0.244 -1.892,-0.47 -2.883,-0.47 v 0 c -11.873,0 -23.745,-0.008 -35.618,-0.008 v 0 C 69.464,14.165 58.334,14.172 47.205,14.175 v 0 l -10.714,0.033 c -0.376,-0.042 -0.602,-0.095 -0.487,-0.531 v 0 c 0,-0.157 -10e-4,-0.316 -10e-4,-0.475 v 0 c -0.127,-0.565 0.198,-0.53 0.485,-0.495 v 0 c 0.071,0.008 0.139,0.017 0.199,0.017 v 0 c 7.535,-0.015 6.15,-0.022 13.686,-0.024 v 0 c 11.417,-0.002 22.833,0 34.249,0 v 0 h 14.347 19.436 c 0.534,0 0.988,0.159 1.521,0.333 v 0 c 0.502,0.165 0.934,0.361 1.421,0.509 v 0 c 0.482,0.148 0.788,0.5 1.27,0.627 v 0 c 0.489,0.129 0.843,0.514 1.273,0.779 v 0 c 0.475,0.294 0.831,0.677 1.268,0.988 v 0 c 0.559,0.4 0.925,0.941 1.426,1.411 v 0 c 0.379,0.354 0.621,0.74 0.951,1.102 v 0 c 0.277,0.304 0.383,0.678 0.63,0.977 v 0 c 0.225,0.274 0.356,0.551 0.514,0.855 v 0 c 0.23,0.44 0.408,0.869 0.612,1.316 v 0 c 0.218,0.477 0.374,0.941 0.503,1.43 v 0 c 0.099,0.37 0.171,0.747 0.293,1.11 v 0 c 0.176,0.525 0.127,1.074 0.301,1.599 v 0 c 0.018,0.052 0.018,0.085 0.018,0.14 v 0 c -0.01,0.562 0.136,1.066 0.144,1.607 v 0 c 0.003,0.144 0.006,0.288 0.021,0.431 v 0 c 0.014,0.128 0.056,0.27 0.068,0.399 v 0 c 0.033,0.31 -0.003,0.608 -0.061,0.927 v 0 c -0.065,0.361 -0.072,0.734 -0.052,1.1 v 0 c 0.022,0.392 -0.16,0.739 -0.159,1.116 v 0 c 0,0.426 -0.272,0.721 -0.278,1.109 v 0 c -0.007,0.406 -0.176,0.736 -0.329,1.108 v 0 c -0.213,0.52 -0.365,1.043 -0.639,1.523 v 0 c -2.047,3.6 -5.322,5.295 -9.264,5.913 v 0 c -0.488,0.076 -0.622,0.216 -0.577,0.684 v 0 c 0.076,0.79 0.092,1.583 -0.079,2.366 v 0 c -1.101,5.052 -7.569,9.738 -14.131,5.916 v 0 c -0.737,-0.428 -0.899,-0.264 -1.16,0.422 v 0 c -1.037,2.723 -2.781,4.926 -5.213,6.515 v 0 c -3.434,2.243 -7.123,3.298 -11.005,3.298 v 0 c -1.337,0 -2.697,-0.125 -4.077,-0.37" /></g></g></g></g><g
       id="g50"><g
         clip-path="url(#clipPath56)"
         id="g52"><g
           id="g58"><g
             id="g60"><path
               id="path70"
               style="fill:url(#linearGradient68);stroke:none"
               d="M 4.579,33.634 C 2.86,31.874 2,29.672 2,27.026 v 0 c 0,-2.639 0.845,-4.875 2.533,-6.712 v 0 c 1.69,-1.837 3.744,-2.757 6.164,-2.757 v 0 c 1.862,0 3.432,0.593 4.707,1.778 v 0 c 1.276,1.183 1.914,2.645 1.914,4.386 v 0 c 0,1.498 -0.545,2.922 -1.633,4.27 v 0 h -5.053 v -4.047 h 1.266 c 0.522,0 0.784,-0.174 0.784,-0.522 v 0 c 0,-0.462 -0.396,-0.692 -1.189,-0.692 v 0 c -1.245,0 -2.233,0.37 -2.964,1.109 v 0 C 7.798,24.58 7.432,25.58 7.432,26.842 v 0 c 0,1.237 0.394,2.243 1.182,3.017 v 0 c 0.788,0.776 1.804,1.162 3.049,1.162 v 0 c 0.688,0 1.45,-0.197 2.286,-0.587 v 0 5.301 c -1.072,0.359 -2.047,0.537 -2.925,0.537 v 0 c -2.577,0 -4.725,-0.88 -6.445,-2.638" /></g></g></g></g><g
       id="g72"><g
         clip-path="url(#clipPath78)"
         id="g74"><g
           id="g80"><g
             id="g82"><path
               id="path92"
               style="fill:url(#linearGradient90);stroke:none"
               d="m 21.163,33.555 c -1.841,-1.811 -2.762,-4.021 -2.762,-6.634 v 0 c 0,-2.586 0.915,-4.792 2.743,-6.621 v 0 c 1.828,-1.828 4.034,-2.743 6.62,-2.743 v 0 c 2.603,0 4.814,0.912 6.634,2.731 v 0 c 1.819,1.819 2.73,4.03 2.73,6.633 v 0 c 0,2.559 -0.905,4.758 -2.71,6.596 v 0 c -1.807,1.836 -3.972,2.755 -6.497,2.755 v 0 c -2.664,0 -4.917,-0.906 -6.758,-2.717 m 3.826,-9.533 c -0.77,0.801 -1.155,1.768 -1.155,2.899 v 0 c 0,1.131 0.383,2.099 1.149,2.9 v 0 c 0.766,0.8 1.693,1.2 2.781,1.2 v 0 c 1.097,0 2.027,-0.396 2.787,-1.192 v 0 c 0.763,-0.797 1.143,-1.768 1.143,-2.908 v 0 c 0,-1.14 -0.38,-2.105 -1.143,-2.904 v 0 c -0.76,-0.795 -1.69,-1.196 -2.787,-1.196 v 0 c -1.079,0 -2.004,0.401 -2.775,1.201" /></g></g></g></g><g
       id="g94"><g
         clip-path="url(#clipPath100)"
         id="g96"><g
           id="g102"><g
             id="g104"><path
               id="path114"
               style="fill:url(#linearGradient112);stroke:none"
               d="m 45.293,33.555 c -1.824,-1.811 -2.736,-4.045 -2.736,-6.7 v 0 c 0,-2.637 0.895,-4.845 2.683,-6.624 v 0 c 1.789,-1.78 4.012,-2.674 6.667,-2.674 v 0 c 2.611,0 4.729,0.785 6.353,2.352 v 0 c 1.624,1.568 2.618,3.786 2.984,6.659 v 0 l -5.549,0.145 c -0.123,-1.255 -0.517,-2.217 -1.183,-2.886 v 0 c -0.666,-0.672 -1.56,-1.006 -2.684,-1.006 v 0 c -1.105,0 -2.019,0.383 -2.742,1.144 v 0 c -0.723,0.762 -1.084,1.725 -1.084,2.89 v 0 c 0,1.211 0.368,2.208 1.104,2.993 v 0 c 0.735,0.782 1.669,1.173 2.801,1.173 v 0 c 1.775,0 2.981,-0.975 3.618,-2.924 v 0 l 5.679,0.379 c -0.504,2.192 -1.367,3.903 -2.585,5.13 v 0 c -1.759,1.777 -3.952,2.666 -6.581,2.666 v 0 c -2.673,0 -4.921,-0.906 -6.745,-2.717" /></g></g></g></g><g
       id="g116"><g
         clip-path="url(#clipPath122)"
         id="g118"><g
           id="g124"><g
             id="g126"><path
               id="path136"
               style="fill:url(#linearGradient134);stroke:none"
               d="M 63.385,35.826 V 24.387 c 0,-2.001 0.54,-3.563 1.619,-4.69 v 0 c 1.08,-1.128 2.586,-1.694 4.519,-1.694 v 0 h 1.411 v 5.171 h -0.275 c -0.784,0 -1.309,0.139 -1.574,0.413 v 0 c -0.266,0.275 -0.398,0.823 -0.398,1.649 v 0 10.59 z" /></g></g></g></g><g
       id="g138"><g
         clip-path="url(#clipPath144)"
         id="g140"><g
           id="g146"><g
             id="g148"><path
               id="path158"
               style="fill:url(#linearGradient156);stroke:none"
               d="m 74.413,33.555 c -1.841,-1.811 -2.762,-4.021 -2.762,-6.634 v 0 c 0,-2.586 0.914,-4.792 2.743,-6.621 v 0 c 1.828,-1.828 4.034,-2.743 6.62,-2.743 v 0 c 2.602,0 4.815,0.912 6.633,2.731 v 0 c 1.82,1.819 2.73,4.03 2.73,6.633 v 0 c 0,2.559 -0.904,4.758 -2.71,6.596 v 0 c -1.806,1.836 -3.972,2.755 -6.496,2.755 v 0 c -2.665,0 -4.917,-0.906 -6.758,-2.717 m 3.827,-9.533 c -0.772,0.801 -1.157,1.768 -1.157,2.899 v 0 c 0,1.131 0.384,2.099 1.149,2.9 v 0 c 0.766,0.8 1.693,1.2 2.782,1.2 v 0 c 1.097,0 2.026,-0.396 2.789,-1.192 v 0 c 0.76,-0.797 1.142,-1.768 1.142,-2.908 v 0 c 0,-1.14 -0.382,-2.105 -1.142,-2.904 v 0 C 83.04,23.222 82.111,22.821 81.014,22.821 v 0 c -1.08,0 -2.005,0.401 -2.774,1.201" /></g></g></g></g><g
       id="g160"><g
         clip-path="url(#clipPath166)"
         id="g162"><g
           id="g168"><g
             id="g170"><path
               id="path180"
               style="fill:url(#linearGradient178);stroke:none"
               d="M 100.093,35.826 V 24.453 c 0,-1.088 -0.375,-1.632 -1.124,-1.632 v 0 c -0.774,0 -1.162,0.544 -1.162,1.632 v 0 11.373 H 92.506 V 24.44 c 0,-2.22 0.533,-3.922 1.599,-5.105 v 0 c 1.066,-1.185 2.605,-1.778 4.616,-1.778 v 0 c 2.02,0 3.637,0.611 4.852,1.83 v 0 c 1.214,1.218 1.821,2.847 1.821,4.883 v 0 11.556 z" /></g></g></g></g><g
       id="g182"><g
         clip-path="url(#clipPath188)"
         id="g184"><g
           id="g190"><g
             id="g192"><path
               id="path202"
               style="fill:url(#linearGradient200);stroke:none"
               d="M 108.619,35.826 V 18.003 h 5.302 v 12.705 h 1.789 c 3.039,0 4.558,-1.214 4.558,-3.643 v 0 c 0,-2.587 -1.545,-3.879 -4.636,-3.879 v 0 h -0.849 v -5.235 c 0.731,-0.036 1.259,-0.054 1.581,-0.054 v 0 c 2.741,0 4.983,0.855 6.725,2.56 v 0 c 1.741,1.706 2.611,3.91 2.611,6.608 v 0 c 0,2.82 -1.018,5.053 -3.055,6.698 v 0 c -1.716,1.377 -4.087,2.063 -7.117,2.063 v 0 z" /></g></g></g></g><g
       id="g204"><g
         clip-path="url(#clipPath210)"
         id="g206"><g
           transform="translate(147.7646,20.3291)"
           id="g212"><path
             id="path214"
             style="fill:#ffffff;fill-opacity:1;fill-rule:nonzero;stroke:none"
             d="m 0,0 c -1.611,-0.917 -3.431,-1.375 -5.458,-1.375 -2.334,0 -4.214,0.738 -5.641,2.215 -1.427,1.473 -2.141,3.445 -2.141,5.911 0,2.492 0.788,4.542 2.365,6.145 1.576,1.605 3.597,2.408 6.062,2.408 1.743,0 3.219,-0.279 4.428,-0.834 v -2.25 c -1.292,0.812 -2.83,1.218 -4.615,1.218 -1.757,0 -3.205,-0.6 -4.344,-1.801 -1.139,-1.202 -1.709,-2.785 -1.709,-4.751 0,-2.02 0.525,-3.594 1.574,-4.719 1.048,-1.125 2.465,-1.687 4.25,-1.687 1.229,0 2.274,0.237 3.135,0.708 v 4.365 h -3.5 v 1.843 l 5.594,0 z" /></g><g
           transform="translate(152.4829,24.9229)"
           id="g216"><path
             id="path218"
             style="fill:#ffffff;fill-opacity:1;fill-rule:nonzero;stroke:none"
             d="m 0,0 c 0,-1.325 0.335,-2.371 1.006,-3.135 0.67,-0.764 1.571,-1.145 2.703,-1.145 1.166,0 2.055,0.373 2.666,1.119 0.611,0.746 0.917,1.818 0.917,3.214 0,1.403 -0.306,2.479 -0.917,3.229 C 5.764,4.032 4.875,4.407 3.709,4.407 2.563,4.407 1.659,4.015 0.995,3.23 0.332,2.445 0,1.369 0,0 m -2.083,-0.062 c 0,1.904 0.531,3.405 1.594,4.505 1.062,1.101 2.503,1.651 4.323,1.651 1.729,0 3.085,-0.53 4.068,-1.587 0.982,-1.06 1.473,-2.524 1.473,-4.392 0,-1.819 -0.524,-3.288 -1.573,-4.407 -1.048,-1.117 -2.454,-1.677 -4.218,-1.677 -1.723,0 -3.098,0.542 -4.125,1.625 -1.028,1.084 -1.542,2.511 -1.542,4.282" /></g><g
           transform="translate(176.0361,19.8926)"
           id="g220"><path
             id="path222"
             style="fill:#ffffff;fill-opacity:1;fill-rule:nonzero;stroke:none"
             d="m 0,0 c -1.188,-0.625 -2.678,-0.938 -4.469,-0.938 -2.313,0 -4.16,0.734 -5.542,2.205 -1.382,1.467 -2.072,3.411 -2.072,5.827 0,2.596 0.777,4.687 2.333,6.27 1.555,1.584 3.531,2.376 5.927,2.376 1.541,0 2.816,-0.219 3.823,-0.657 v -2.177 c -1.153,0.639 -2.42,0.958 -3.802,0.958 -1.799,0 -3.264,-0.598 -4.396,-1.798 -1.133,-1.196 -1.698,-2.813 -1.698,-4.847 0,-1.931 0.527,-3.464 1.583,-4.6 C -7.257,1.484 -5.875,0.917 -4.167,0.917 -2.57,0.917 -1.181,1.278 0,2 Z" /></g><path
           id="path224"
           style="fill:#ffffff;fill-opacity:1;fill-rule:nonzero;stroke:none"
           d="m 178.995,36.277 h 2.042 V 19.225 h -2.042 z" /><g
           transform="translate(185.9951,24.9229)"
           id="g226"><path
             id="path228"
             style="fill:#ffffff;fill-opacity:1;fill-rule:nonzero;stroke:none"
             d="m 0,0 c 0,-1.325 0.335,-2.371 1.005,-3.135 0.671,-0.764 1.571,-1.145 2.703,-1.145 1.167,0 2.056,0.373 2.667,1.119 0.611,0.746 0.917,1.818 0.917,3.214 0,1.403 -0.306,2.479 -0.917,3.229 C 5.764,4.032 4.875,4.407 3.708,4.407 2.563,4.407 1.657,4.015 0.995,3.23 0.331,2.445 0,1.369 0,0 m -2.084,-0.062 c 0,1.904 0.532,3.405 1.595,4.505 1.062,1.101 2.503,1.651 4.322,1.651 1.729,0 3.085,-0.53 4.068,-1.587 0.983,-1.06 1.474,-2.524 1.474,-4.392 0,-1.819 -0.524,-3.288 -1.573,-4.407 -1.049,-1.117 -2.454,-1.677 -4.219,-1.677 -1.722,0 -3.098,0.542 -4.125,1.625 -1.028,1.084 -1.542,2.511 -1.542,4.282" /></g><g
           transform="translate(207.7549,19.2256)"
           id="g230"><path
             id="path232"
             style="fill:#ffffff;fill-opacity:1;fill-rule:nonzero;stroke:none"
             d="m 0,0 h -2.052 v 1.812 h -0.042 c -0.77,-1.389 -1.955,-2.083 -3.552,-2.083 -2.729,0 -4.094,1.632 -4.094,4.896 v 6.896 h 2.021 V 4.928 c 0,-2.342 0.896,-3.511 2.688,-3.511 0.888,0 1.607,0.328 2.156,0.984 0.549,0.656 0.823,1.485 0.823,2.485 v 6.635 H 0 Z" /></g><g
           transform="translate(219.3594,26.0801)"
           id="g234"><path
             id="path236"
             style="fill:#ffffff;fill-opacity:1;fill-rule:nonzero;stroke:none"
             d="M 0,0 C 0,0.924 -0.304,1.696 -0.911,2.317 -1.52,2.938 -2.268,3.25 -3.156,3.25 -4.239,3.25 -5.094,2.846 -5.719,2.036 -6.344,1.228 -6.656,0.125 -6.656,-1.271 c 0,-1.285 0.301,-2.301 0.9,-3.047 0.602,-0.746 1.402,-1.119 2.402,-1.119 0.986,0 1.792,0.365 2.417,1.099 C -0.312,-3.605 0,-2.695 0,-1.604 Z M 2.032,-6.854 H -0.01 v 1.917 h -0.042 c -0.841,-1.459 -2.146,-2.189 -3.917,-2.189 -1.459,0 -2.618,0.52 -3.479,1.558 -0.862,1.038 -1.292,2.438 -1.292,4.203 0,1.902 0.486,3.428 1.459,4.579 0.971,1.149 2.243,1.723 3.812,1.723 1.57,0 2.709,-0.612 3.417,-1.833 h 0.042 v 7.093 h 2.042 z" /></g><g
           transform="translate(234.4023,29.1318)"
           id="g238"><path
             id="path240"
             style="fill:#ffffff;fill-opacity:1;fill-rule:nonzero;stroke:none"
             d="M 0,0 4.271,0.229 V 1.437 H 5.854 V 0.312 l 6.355,0.355 0.062,-1.229 -6.417,-0.355 v -0.52 c 0,-0.528 0.312,-0.792 0.937,-0.792 h 4.522 c 0.93,0 1.452,0.243 1.562,0.729 0.056,0.333 0.118,0.777 0.188,1.333 0.541,-0.194 1.096,-0.354 1.666,-0.478 -0.208,-0.861 -0.369,-1.43 -0.48,-1.709 C 13.93,-3.117 13.09,-3.5 11.729,-3.5 H 6.75 c -1.653,0 -2.479,0.681 -2.479,2.041 V -1.02 L 0.062,-1.25 Z m 8.938,-4.125 h 1.541 v -3.187 h 2.875 v 2.353 h 1.5 v -4.104 h -1.5 v 0.459 h -2.875 v -1.978 h 5.5 v -1.334 H -0.875 v 1.334 h 5.771 v 1.978 H 0.625 v 3.645 h 1.458 v -2.353 h 2.813 v 3.166 h 1.541 v -6.436 H 8.938 Z M 4.312,7.542 H 5.896 V 6.146 h 8.875 V 4.875 H 5.896 V 3.417 h 9.812 L 15.541,0.25 C 15,0.292 14.472,0.312 13.958,0.312 l 0.166,1.772 H -0.979 v -4.793 c 0,-4.111 -0.84,-7.401 -2.521,-9.874 -0.361,0.445 -0.758,0.909 -1.187,1.395 1.388,2.042 2.083,4.868 2.083,8.479 v 6.126 h 6.916 z" /></g><g
           transform="translate(269.6309,26.0479)"
           id="g242"><path
             id="path244"
             style="fill:#ffffff;fill-opacity:1;fill-rule:nonzero;stroke:none"
             d="m 0,0 0.729,1.834 h -2.103 v -3.521 h 2.999 v -1.292 h -2.999 v -4.394 c 0.277,-0.07 0.568,-0.106 0.875,-0.106 0.888,-0.028 1.818,0 2.791,0.083 -0.194,-0.625 -0.347,-1.125 -0.458,-1.5 -0.611,-0.013 -1.459,-0.013 -2.541,0 -1.82,0.042 -3.209,0.925 -4.167,2.646 -0.39,-1.373 -1,-2.54 -1.834,-3.499 -0.5,0.515 -0.902,0.875 -1.208,1.084 1.542,1.611 2.299,3.776 2.27,6.498 0.015,0.459 0.022,1.189 0.022,2.189 h 1.333 c 0,-0.75 -0.014,-1.48 -0.042,-2.189 -0.014,-0.777 -0.069,-1.52 -0.166,-2.228 0.486,-1.07 1.083,-1.87 1.792,-2.397 v 8.626 h -3.501 v 1.333 h 4.167 c -0.916,1 -1.889,1.986 -2.917,2.959 l 0.959,0.875 c 0.681,-0.639 1.312,-1.23 1.895,-1.771 l 2.188,3 H -5.771 V 9.563 H 1.667 V 8.105 L -1.104,4.251 C -0.909,4.07 -0.729,3.896 -0.562,3.729 L -1.145,3.167 H 2.021 V 1.73 L 1.229,-0.395 C 0.785,-0.214 0.375,-0.083 0,0 m -12.333,10.646 h 1.375 V 8.251 c 1.486,0.431 2.854,0.895 4.104,1.395 L -6.271,8.355 C -7.84,7.827 -9.402,7.362 -10.958,6.959 V 5.918 c 0,-0.723 0.306,-1.091 0.917,-1.105 h 1.166 c 0.778,0.014 1.223,0.264 1.334,0.75 0.097,0.472 0.181,1.021 0.25,1.646 0.472,-0.222 0.917,-0.416 1.333,-0.583 -0.083,-0.514 -0.188,-1.014 -0.313,-1.5 -0.25,-1.084 -1.083,-1.625 -2.5,-1.625 h -1.5 c -1.361,0.014 -2.048,0.743 -2.062,2.187 z M -13.27,-2.167 h 3.187 c 0.083,0.723 0.139,1.55 0.167,2.48 h -1.355 c -0.278,-0.666 -0.562,-1.291 -0.854,-1.875 -0.389,0.279 -0.791,0.514 -1.207,0.709 0.055,0.083 0.103,0.172 0.145,0.27 -0.528,-0.139 -1.062,-0.284 -1.604,-0.437 v -6.126 c 0.028,-1.5 -0.563,-2.263 -1.771,-2.292 -0.57,-0.013 -1.09,-0.005 -1.563,0.023 -0.041,0.458 -0.117,0.964 -0.229,1.519 0.653,-0.069 1.125,-0.096 1.417,-0.083 0.5,-0.013 0.743,0.32 0.729,1 v 5.562 c -0.652,-0.18 -1.319,-0.375 -2,-0.583 l -0.25,1.605 c 0.694,0.153 1.444,0.326 2.25,0.52 v 4.813 h -2.083 v 1.375 h 2.083 v 4.333 h 1.417 V 6.313 h 1.646 V 4.938 h -1.646 V 0.48 c 0.528,0.125 1.068,0.264 1.625,0.417 -0.028,-0.611 -0.028,-1.105 0,-1.48 0.666,1.208 1.18,2.473 1.541,3.792 l 1.312,-0.375 C -10.451,2.403 -10.597,1.993 -10.75,1.605 h 4.376 V 0.313 h -2.209 c -0.014,-0.902 -0.063,-1.73 -0.146,-2.48 h 2.521 v -1.291 h -2.708 c -0.056,-0.25 -0.111,-0.492 -0.167,-0.729 0.764,-0.722 1.535,-1.472 2.312,-2.25 l -1,-1.042 c -0.596,0.695 -1.18,1.348 -1.75,1.958 -0.583,-1.36 -1.66,-2.721 -3.228,-4.083 -0.279,0.445 -0.599,0.875 -0.958,1.291 1.568,1.237 2.589,2.479 3.061,3.73 0.139,0.319 0.257,0.694 0.355,1.125 h -2.979 z" /></g><path
           id="path246"
           style="fill:#ffffff;fill-opacity:1;fill-rule:nonzero;stroke:none"
           d="m 284.569,29.299 h 5.25 v -1.042 h -5.25 z m 0,2.125 h 5.25 v -1.042 h -5.25 z m 4.583,-8.251 h -5.687 v -1.667 h 5.687 z m 0,2.792 h -5.687 v -1.667 h 5.687 z m -12.791,-4.459 h 5.645 v 1.667 h -5.645 z m 0,2.792 h 5.645 v 1.667 h -5.645 z m -0.479,5.001 h 5.229 v -1.042 h -5.229 z m 0,2.125 h 5.229 v -1.042 h -5.229 z m -0.938,-4.292 h 15.667 v -6.793 h -7.146 v -0.458 c 0,-1.04 0.604,-1.562 1.812,-1.562 h 3.625 c 1.361,0 2.139,0.389 2.333,1.167 0.167,0.708 0.333,1.653 0.5,2.833 0.529,-0.277 1.021,-0.5 1.48,-0.666 -0.194,-1.055 -0.382,-1.924 -0.563,-2.603 -0.347,-1.417 -1.437,-2.126 -3.27,-2.126 h -4.334 c -2.027,0 -3.042,0.972 -3.042,2.915 v 0.5 h -5.645 v -1.123 h -1.417 z m -1.604,6.542 h 8.77 v 1.125 h -7.187 v 1.167 h 15.834 v -1.167 h -7.188 v -1.125 h 8.812 v -4.042 h -1.458 v 2.875 h -7.354 v -4.542 h -1.459 v 4.542 h -7.312 v -2.875 h -1.458 z" /><g
           transform="translate(312.7158,36.6528)"
           id="g248"><path
             id="path250"
             style="fill:#ffffff;fill-opacity:1;fill-rule:nonzero;stroke:none"
             d="M 0,0 1.312,-0.77 C 0.465,-2.076 -0.306,-3.173 -0.999,-4.062 -0.306,-4.937 0.458,-5.965 1.292,-7.146 L 0,-8.042 C -0.889,-6.5 -1.756,-5.18 -2.604,-4.083 -1.631,-2.848 -0.764,-1.487 0,0 m -4.229,0 1.313,-0.77 c -0.764,-1.167 -1.528,-2.265 -2.292,-3.292 0.694,-0.89 1.451,-1.917 2.271,-3.084 l -1.271,-0.875 c -0.889,1.486 -1.75,2.799 -2.584,3.938 0.903,1.194 1.758,2.554 2.563,4.083 m -4.354,-12.083 0.791,1.02 c 1.07,-0.708 2.105,-1.409 3.105,-2.104 0.861,0.75 1.68,1.556 2.458,2.417 l 1.021,-0.875 c -0.735,-0.792 -1.534,-1.563 -2.396,-2.313 0.958,-0.681 1.889,-1.354 2.792,-2.02 l -0.875,-1.167 c -0.972,0.764 -1.972,1.528 -3,2.292 -1.042,-0.862 -2.181,-1.695 -3.417,-2.5 -0.25,0.375 -0.548,0.755 -0.896,1.144 1.139,0.64 2.216,1.356 3.229,2.147 -0.916,0.653 -1.854,1.306 -2.812,1.959 m 8.104,1.77 h -8.833 v -7.646 h 8.833 z m -10.25,1.375 h 3.333 c 0.347,0.709 0.639,1.382 0.875,2.021 l 1.438,-0.541 c -0.264,-0.487 -0.549,-0.98 -0.854,-1.48 h 6.874 v -11.354 h -1.416 v 0.959 h -8.834 v -0.959 h -1.416 z M -8.604,0 -7.229,-0.792 c -0.75,-1.097 -1.563,-2.187 -2.438,-3.27 0.681,-0.82 1.479,-1.848 2.396,-3.084 l -1.333,-0.896 c -0.875,1.472 -1.764,2.792 -2.667,3.959 0.958,1.166 1.847,2.527 2.667,4.083 m -7.479,-11.292 h 2.625 v 3.75 h -2.625 z m 2.625,8.917 h -2.625 v -3.751 h 2.625 z m -4,1.458 h 5.374 V -18 c 0,-1.028 -0.395,-1.645 -1.187,-1.854 -0.416,-0.11 -1.277,-0.133 -2.583,-0.063 -0.084,0.514 -0.167,0.994 -0.25,1.439 0.764,-0.084 1.354,-0.125 1.771,-0.125 0.584,0 0.875,0.319 0.875,0.958 v 4.937 h -2.625 c 0.042,-3.389 -0.473,-5.904 -1.542,-7.542 -0.431,0.361 -0.84,0.674 -1.229,0.938 0.945,1.292 1.41,3.54 1.396,6.749 z" /></g><g
           transform="translate(328.1328,30.1318)"
           id="g252"><path
             id="path254"
             style="fill:#ffffff;fill-opacity:1;fill-rule:nonzero;stroke:none"
             d="m 0,0 c 0.278,-2.528 0.91,-4.715 1.896,-6.562 1.264,2.195 1.938,4.784 2.021,7.771 H 0.458 C 0.319,0.806 0.167,0.403 0,0 m -3.354,-3.729 c 1.569,2.889 2.827,6.292 3.771,10.208 L 1.937,6.104 C 1.66,4.965 1.341,3.834 0.979,2.709 h 6.5 v -1.5 H 5.437 C 5.34,-2.375 4.465,-5.459 2.813,-8.042 c 1.264,-1.736 2.922,-3.09 4.978,-4.062 -0.389,-0.57 -0.715,-1.084 -0.979,-1.542 -2.028,1.167 -3.679,2.591 -4.958,4.27 -1.403,-1.748 -3.222,-3.242 -5.458,-4.478 -0.25,0.361 -0.59,0.819 -1.021,1.375 2.319,1.18 4.174,2.672 5.562,4.478 -0.972,1.625 -1.631,3.459 -1.979,5.501 -0.319,-0.681 -0.645,-1.354 -0.979,-2.021 -0.445,0.292 -0.889,0.556 -1.333,0.792 m 0.625,8.416 1.25,-0.812 C -2.326,2.611 -3.271,1.361 -4.312,0.125 h 1.541 V -1.25 H -5.5 c -0.556,-0.625 -1.126,-1.229 -1.708,-1.812 h 3.416 v -1.25 l -2.687,-2.647 v -0.375 c 1.125,0.194 2.368,0.417 3.729,0.667 -0.042,-0.528 -0.069,-1.006 -0.084,-1.437 -1.139,-0.195 -2.353,-0.411 -3.645,-0.647 v -2.27 c 0.096,-1.722 -0.708,-2.547 -2.417,-2.478 -0.597,0 -1.368,0.014 -2.312,0.041 -0.056,0.445 -0.125,0.965 -0.209,1.562 0.653,-0.07 1.396,-0.111 2.229,-0.125 0.875,-0.083 1.278,0.305 1.209,1.167 v 1.833 c -1.347,-0.25 -2.764,-0.522 -4.25,-0.813 l -0.25,1.521 c 1.153,0.167 2.653,0.404 4.5,0.709 v 1.042 l 2.187,2.166 h -2.791 c -1.153,-1.055 -2.306,-2.027 -3.459,-2.916 -0.277,0.389 -0.604,0.784 -0.979,1.186 0.805,0.57 1.556,1.147 2.25,1.73 H -12.5 v 1.334 h 3.229 c 0.653,0.583 1.285,1.187 1.896,1.812 h -5.396 v 1.375 h 4.105 V 2.25 h -3.272 v 1.375 h 3.272 v 2.833 h 1.5 V 3.625 h 2.562 V 2.25 H -7.166 V 0.125 h 1.02 c 1.25,1.403 2.389,2.924 3.417,4.562" /></g><g
           transform="translate(337.3828,34.2363)"
           id="g256"><path
             id="path258"
             style="fill:#ffffff;fill-opacity:1;fill-rule:nonzero;stroke:none"
             d="M 0,0 H 9.125 C 8.736,0.749 8.299,1.493 7.812,2.229 l 1.48,0.709 C 9.806,2.173 10.306,1.36 10.792,0.5 L 9.761,0 h 9.281 v -3.771 h -1.666 v 2.334 H 1.667 V -3.771 H 0 Z m -0.75,-15.5 h 9.396 v 2.437 H 1.167 v 1.438 h 7.479 v 2.406 C 7.181,-9.281 5.764,-9.347 4.396,-9.416 3.702,-9.458 3.007,-9.55 2.313,-9.688 l -0.709,1.73 c 0.528,0.208 1.09,0.506 1.688,0.895 0.979,0.673 1.878,1.355 2.697,2.042 h -3.78 v 1.437 H 16.917 V -5.021 H 8.438 c -1.112,-0.903 -2.39,-1.862 -3.834,-2.875 3.014,0.105 6.021,0.215 9.021,0.333 -0.444,0.403 -0.909,0.813 -1.396,1.23 l 1.146,1.041 c 1.75,-1.374 3.271,-2.666 4.562,-3.874 l -1.353,-1.272 C 16.146,-9.972 15.677,-9.494 15.177,-9 13.51,-9.041 11.896,-9.094 10.333,-9.156 v -2.469 h 7.5 v -1.438 h -7.5 V -15.5 h 9.417 v -1.437 h -20.5 z" /></g></g></g></g></svg>