<?xml version="1.0" encoding="utf-8"?>
<!-- Generator: Adobe Illustrator 16.0.3, SVG Export Plug-In . SVG Version: 6.00 Build 0)  -->
<!DOCTYPE svg PUBLIC "-//W3C//DTD SVG 1.1//EN" "http://www.w3.org/Graphics/SVG/1.1/DTD/svg11.dtd">
<svg version="1.1" id="圖層_1" xmlns="http://www.w3.org/2000/svg" xmlns:xlink="http://www.w3.org/1999/xlink" x="0px" y="0px"
	 width="27.494px" height="10px" viewBox="0 0 27.494 10" enable-background="new 0 0 27.494 10" xml:space="preserve">
<g>
	<path fill-rule="evenodd" clip-rule="evenodd" fill="#349DCA" d="M9.313,3.947c-0.315,0-0.63,0.007-0.945-0.001
		c-0.52-0.014-0.85-0.625-0.581-1.07c0.035-0.057,0.082-0.137,0.135-0.148c0.255-0.053,0.265-0.245,0.304-0.446
		c0.059-0.302,0.244-0.508,0.563-0.545c0.355-0.042,0.694-0.005,0.892,0.352c0.054,0.097,0.096,0.095,0.191,0.069
		c0.284-0.076,0.489,0.057,0.542,0.342c0.015,0.078,0.035,0.115,0.115,0.14c0.363,0.118,0.475,0.319,0.417,0.729
		c-0.045,0.314-0.319,0.573-0.626,0.578C9.985,3.951,9.648,3.947,9.313,3.947z"/>
	<path fill-rule="evenodd" clip-rule="evenodd" fill="#349DCA" d="M15.176,4.746c-0.151,0-0.301,0-0.452,0
		c-0.192-0.002-0.334-0.084-0.386-0.274c-0.046-0.172-0.019-0.333,0.17-0.409c0.083-0.033,0.058-0.1,0.072-0.153
		c0.042-0.164,0.12-0.287,0.3-0.325c0.176-0.038,0.323,0.004,0.446,0.135c0.018,0.019,0.035,0.064,0.048,0.062
		c0.228-0.028,0.316,0.162,0.466,0.268c0.178,0.126,0.202,0.269,0.16,0.439c-0.042,0.17-0.176,0.253-0.354,0.255
		C15.491,4.747,15.333,4.746,15.176,4.746z"/>
	<linearGradient id="SVGID_1_" gradientUnits="userSpaceOnUse" x1="17.5552" y1="0" x2="17.5552" y2="9.999">
		<stop  offset="0" style="stop-color:#349DCA"/>
		<stop  offset="0.1928" style="stop-color:#3A7CA9"/>
		<stop  offset="0.3857" style="stop-color:#3C5F8E"/>
		<stop  offset="0.5684" style="stop-color:#3D487B"/>
		<stop  offset="0.7368" style="stop-color:#3C396F"/>
		<stop  offset="0.8859" style="stop-color:#3B3069"/>
		<stop  offset="1" style="stop-color:#3B2C67"/>
	</linearGradient>
	<path fill-rule="evenodd" clip-rule="evenodd" fill="url(#SVGID_1_)" d="M27.492,6.717c0.007-0.065,0-0.127-0.013-0.194
		c-0.014-0.075-0.015-0.154-0.011-0.231c0.005-0.081-0.034-0.154-0.033-0.234c0-0.089-0.058-0.15-0.059-0.231
		C27.375,5.74,27.34,5.67,27.307,5.592c-0.044-0.108-0.076-0.219-0.134-0.319c-0.43-0.756-1.118-1.112-1.945-1.242
		c-0.103-0.016-0.131-0.045-0.122-0.144c0.016-0.166,0.019-0.333-0.016-0.497c-0.232-1.061-1.589-2.045-2.967-1.243
		c-0.155,0.09-0.189,0.056-0.244-0.088c-0.218-0.572-0.583-1.034-1.095-1.368c-0.969-0.633-2.035-0.814-3.167-0.614
		c-0.881,0.156-1.571,0.612-2.045,1.379c-0.177,0.287-0.313,0.592-0.404,0.942c0.091-0.054,0.104-0.131,0.136-0.192
		c0.352-0.667,0.874-1.139,1.589-1.388c0.669-0.233,1.356-0.275,2.049-0.155c1.035,0.179,1.885,0.662,2.461,1.567
		c0.137,0.216,0.246,0.445,0.343,0.684c0.845-0.693,1.539-0.599,2.102-0.246c0.611,0.383,0.899,1.065,0.769,1.817
		c0.874,0.068,1.682,0.325,2.116,1.144c0.052,0.097,0.112,0.193,0.138,0.301c0.008,0.034,0.013,0.062,0.033,0.097
		c0.045,0.083,0.046,0.18,0.066,0.271c0.016,0.066,0.001,0.137,0.022,0.202c0.004,0.01,0.009,0.021,0.012,0.031
		c0.014,0.052,0.007,0.107,0.009,0.162c0.001,0.077,0,0.154,0,0.232c-0.001,0.055,0.001,0.111-0.002,0.166
		c-0.005,0.089-0.018,0.178-0.03,0.267c-0.01,0.067-0.021,0.134-0.035,0.202c-0.02,0.1-0.042,0.199-0.072,0.297
		c-0.02,0.068-0.042,0.135-0.069,0.199c-0.038,0.092-0.081,0.182-0.127,0.269c-0.03,0.058-0.063,0.113-0.098,0.167
		c-0.053,0.081-0.109,0.159-0.17,0.233c-0.064,0.078-0.132,0.153-0.207,0.222c-0.106,0.099-0.22,0.19-0.34,0.271
		c-0.113,0.077-0.232,0.145-0.356,0.203c-0.142,0.065-0.288,0.129-0.439,0.166c-0.198,0.051-0.397,0.099-0.606,0.099
		c-2.493,0-4.985,0.002-7.478,0.002c-2.336,0-4.673,0-7.01-0.002l-2.25-0.008C7.646,9.688,7.599,9.7,7.623,9.791
		c0,0.033,0,0.065,0,0.1c-0.033,0.148,0.082,0.101,0.144,0.101c1.583,0.003,1.291,0.003,2.874,0.005c2.396,0,4.794,0,7.191,0
		c1.004,0,2.008,0,3.012,0c1.36,0,2.72,0,4.081,0c0.112,0,0.208-0.034,0.319-0.068c0.106-0.035,0.196-0.077,0.299-0.108
		c0.1-0.03,0.165-0.105,0.267-0.131c0.102-0.027,0.176-0.107,0.267-0.165c0.099-0.061,0.174-0.142,0.267-0.206
		c0.117-0.085,0.194-0.198,0.298-0.297c0.08-0.074,0.131-0.155,0.201-0.231c0.057-0.063,0.08-0.142,0.132-0.204
		c0.047-0.059,0.075-0.117,0.108-0.182c0.048-0.092,0.086-0.181,0.129-0.275c0.046-0.101,0.078-0.197,0.105-0.301
		c0.02-0.076,0.036-0.156,0.062-0.233c0.037-0.11,0.026-0.224,0.063-0.334c0.004-0.012,0.004-0.018,0.004-0.03
		c-0.002-0.117,0.028-0.223,0.03-0.337c0-0.03,0.001-0.06,0.004-0.09C27.48,6.775,27.49,6.744,27.492,6.717z"/>
	<g>
		<linearGradient id="SVGID_2_" gradientUnits="userSpaceOnUse" x1="2.0913" y1="5.0464" x2="2.0913" y2="8.9761">
			<stop  offset="0" style="stop-color:#349DCA"/>
			<stop  offset="0.1928" style="stop-color:#3A7CA9"/>
			<stop  offset="0.3857" style="stop-color:#3C5F8E"/>
			<stop  offset="0.5684" style="stop-color:#3D487B"/>
			<stop  offset="0.7368" style="stop-color:#3C396F"/>
			<stop  offset="0.8859" style="stop-color:#3B3069"/>
			<stop  offset="1" style="stop-color:#3B2C67"/>
		</linearGradient>
		<path fill="url(#SVGID_2_)" d="M2.295,6.786h1.062c0.229,0.283,0.342,0.581,0.342,0.896c0,0.365-0.134,0.672-0.401,0.92
			C3.03,8.85,2.7,8.976,2.309,8.976c-0.508,0-0.939-0.192-1.293-0.579C0.66,8.01,0.483,7.542,0.483,6.989
			c0-0.557,0.181-1.019,0.542-1.388c0.361-0.37,0.812-0.555,1.353-0.555c0.184,0,0.39,0.038,0.614,0.113v1.113
			C2.816,6.19,2.656,6.148,2.512,6.148c-0.261,0-0.475,0.082-0.64,0.245C1.707,6.555,1.624,6.767,1.624,7.026
			c0,0.266,0.077,0.476,0.23,0.632c0.153,0.153,0.36,0.233,0.622,0.233c0.167,0,0.25-0.049,0.25-0.147
			c0-0.071-0.055-0.109-0.165-0.109H2.295V6.786z"/>
		<linearGradient id="SVGID_3_" gradientUnits="userSpaceOnUse" x1="5.8931" y1="5.0464" x2="5.8931" y2="8.9761">
			<stop  offset="0" style="stop-color:#349DCA"/>
			<stop  offset="0.1928" style="stop-color:#3A7CA9"/>
			<stop  offset="0.3857" style="stop-color:#3C5F8E"/>
			<stop  offset="0.5684" style="stop-color:#3D487B"/>
			<stop  offset="0.7368" style="stop-color:#3C396F"/>
			<stop  offset="0.8859" style="stop-color:#3B3069"/>
			<stop  offset="1" style="stop-color:#3B2C67"/>
		</linearGradient>
		<path fill="url(#SVGID_3_)" d="M5.925,5.046c0.53,0,0.985,0.193,1.365,0.579C7.669,6.01,7.858,6.473,7.858,7.01
			c0,0.546-0.191,1.01-0.573,1.393C6.903,8.785,6.439,8.976,5.893,8.976c-0.543,0-1.006-0.192-1.39-0.576
			C4.119,8.017,3.927,7.554,3.927,7.01c0-0.549,0.193-1.014,0.58-1.393C4.894,5.237,5.367,5.046,5.925,5.046z M5.893,6.148
			c-0.229,0-0.423,0.085-0.584,0.253c-0.16,0.169-0.24,0.372-0.24,0.609S5.148,7.45,5.31,7.618c0.162,0.17,0.356,0.253,0.583,0.253
			c0.23,0,0.425-0.083,0.586-0.251c0.16-0.167,0.24-0.369,0.24-0.609c0-0.239-0.08-0.443-0.24-0.611
			C6.318,6.232,6.123,6.148,5.893,6.148z"/>
		<linearGradient id="SVGID_4_" gradientUnits="userSpaceOnUse" x1="10.9604" y1="5.0464" x2="10.9604" y2="8.9761">
			<stop  offset="0" style="stop-color:#349DCA"/>
			<stop  offset="0.1928" style="stop-color:#3A7CA9"/>
			<stop  offset="0.3857" style="stop-color:#3C5F8E"/>
			<stop  offset="0.5684" style="stop-color:#3D487B"/>
			<stop  offset="0.7368" style="stop-color:#3C396F"/>
			<stop  offset="0.8859" style="stop-color:#3B3069"/>
			<stop  offset="1" style="stop-color:#3B2C67"/>
		</linearGradient>
		<path fill="url(#SVGID_4_)" d="M11.757,7.054l1.165,0.03c-0.077,0.603-0.285,1.068-0.626,1.398
			c-0.341,0.328-0.786,0.493-1.334,0.493c-0.557,0-1.023-0.188-1.4-0.562C9.186,8.041,8.999,7.579,8.999,7.024
			c0-0.558,0.191-1.027,0.575-1.406c0.382-0.381,0.854-0.571,1.416-0.571c0.552,0,1.012,0.187,1.382,0.56
			c0.256,0.259,0.437,0.617,0.543,1.078l-1.193,0.079c-0.133-0.409-0.386-0.615-0.759-0.615c-0.238,0-0.433,0.084-0.588,0.248
			C10.22,6.56,10.142,6.77,10.142,7.024c0,0.245,0.076,0.447,0.227,0.606c0.152,0.159,0.344,0.24,0.576,0.24
			c0.236,0,0.423-0.069,0.563-0.211C11.649,7.52,11.731,7.318,11.757,7.054z"/>
		<linearGradient id="SVGID_5_" gradientUnits="userSpaceOnUse" x1="14.1641" y1="5.1401" x2="14.1641" y2="8.8813">
			<stop  offset="0" style="stop-color:#349DCA"/>
			<stop  offset="0.1928" style="stop-color:#3A7CA9"/>
			<stop  offset="0.3857" style="stop-color:#3C5F8E"/>
			<stop  offset="0.5684" style="stop-color:#3D487B"/>
			<stop  offset="0.7368" style="stop-color:#3C396F"/>
			<stop  offset="0.8859" style="stop-color:#3B3069"/>
			<stop  offset="1" style="stop-color:#3B2C67"/>
		</linearGradient>
		<path fill="url(#SVGID_5_)" d="M13.372,5.14h1.113v2.224c0,0.174,0.027,0.288,0.083,0.347s0.166,0.086,0.331,0.086h0.057v1.085
			H14.66c-0.405,0-0.722-0.116-0.949-0.354c-0.227-0.237-0.339-0.565-0.339-0.985V5.14z"/>
		<linearGradient id="SVGID_6_" gradientUnits="userSpaceOnUse" x1="17.0728" y1="5.0464" x2="17.0728" y2="8.9761">
			<stop  offset="0" style="stop-color:#349DCA"/>
			<stop  offset="0.1928" style="stop-color:#3A7CA9"/>
			<stop  offset="0.3857" style="stop-color:#3C5F8E"/>
			<stop  offset="0.5684" style="stop-color:#3D487B"/>
			<stop  offset="0.7368" style="stop-color:#3C396F"/>
			<stop  offset="0.8859" style="stop-color:#3B3069"/>
			<stop  offset="1" style="stop-color:#3B2C67"/>
		</linearGradient>
		<path fill="url(#SVGID_6_)" d="M17.106,5.046c0.529,0,0.984,0.193,1.363,0.579c0.379,0.385,0.569,0.848,0.569,1.385
			c0,0.546-0.191,1.01-0.573,1.393c-0.382,0.382-0.846,0.573-1.393,0.573c-0.543,0-1.006-0.192-1.391-0.576
			c-0.384-0.383-0.575-0.846-0.575-1.39c0-0.549,0.193-1.014,0.58-1.393C16.074,5.237,16.547,5.046,17.106,5.046z M17.073,6.148
			c-0.229,0-0.424,0.085-0.584,0.253c-0.161,0.169-0.241,0.372-0.241,0.609s0.081,0.439,0.243,0.607
			c0.161,0.17,0.355,0.253,0.583,0.253c0.23,0,0.425-0.083,0.585-0.251c0.16-0.167,0.239-0.369,0.239-0.609
			c0-0.239-0.08-0.443-0.239-0.611C17.499,6.232,17.303,6.148,17.073,6.148z"/>
		<linearGradient id="SVGID_7_" gradientUnits="userSpaceOnUse" x1="20.8384" y1="5.1401" x2="20.8384" y2="8.9761">
			<stop  offset="0" style="stop-color:#349DCA"/>
			<stop  offset="0.1928" style="stop-color:#3A7CA9"/>
			<stop  offset="0.3857" style="stop-color:#3C5F8E"/>
			<stop  offset="0.5684" style="stop-color:#3D487B"/>
			<stop  offset="0.7368" style="stop-color:#3C396F"/>
			<stop  offset="0.8859" style="stop-color:#3B3069"/>
			<stop  offset="1" style="stop-color:#3B2C67"/>
		</linearGradient>
		<path fill="url(#SVGID_7_)" d="M22.192,5.14v2.426c0,0.429-0.127,0.77-0.382,1.025c-0.255,0.257-0.595,0.385-1.019,0.385
			c-0.422,0-0.745-0.126-0.969-0.374c-0.224-0.248-0.336-0.605-0.336-1.071V5.14h1.113v2.389c0,0.228,0.082,0.342,0.245,0.342
			c0.157,0,0.236-0.114,0.236-0.342V5.14H22.192z"/>
		<linearGradient id="SVGID_8_" gradientUnits="userSpaceOnUse" x1="24.6616" y1="5.1401" x2="24.6616" y2="8.9038">
			<stop  offset="0" style="stop-color:#349DCA"/>
			<stop  offset="0.1928" style="stop-color:#3A7CA9"/>
			<stop  offset="0.3857" style="stop-color:#3C5F8E"/>
			<stop  offset="0.5684" style="stop-color:#3D487B"/>
			<stop  offset="0.7368" style="stop-color:#3C396F"/>
			<stop  offset="0.8859" style="stop-color:#3B3069"/>
			<stop  offset="1" style="stop-color:#3B2C67"/>
		</linearGradient>
		<path fill="url(#SVGID_8_)" d="M23.982,6.214v2.667h-1.114V5.14h1.451c0.636,0,1.134,0.145,1.494,0.433
			c0.428,0.346,0.642,0.814,0.642,1.406c0,0.567-0.183,1.029-0.548,1.388c-0.365,0.358-0.836,0.537-1.412,0.537
			c-0.068,0-0.179-0.003-0.332-0.01v-1.1h0.178c0.649,0,0.973-0.271,0.973-0.815c0-0.509-0.319-0.765-0.957-0.765H23.982z"/>
	</g>
</g>
</svg>
